<svg width="35" height="37" viewBox="0 0 35 37" fill="none" xmlns="http://www.w3.org/2000/svg">
<path d="M18.594 10.852C18.594 10.4712 18.3871 10.119 18.0512 9.92859C17.7156 9.7382 17.3016 9.7382 16.9656 9.92859C16.63 10.119 16.4229 10.4712 16.4229 10.852V20.5602C16.4229 20.8406 16.5353 21.1096 16.7355 21.3093C16.936 21.5089 17.2085 21.6229 17.4938 21.6267C17.7793 21.6305 18.0546 21.5238 18.2606 21.3297L21.9499 17.8515C22.2297 17.5877 22.3449 17.1971 22.2521 16.8272C22.1593 16.4576 21.8727 16.1644 21.5002 16.0583C21.1277 15.9523 20.7259 16.0494 20.4462 16.3132L18.5943 18.0593L18.594 10.852Z" fill="#3787FF"/>
<path d="M29.3244 7.14504C29.0383 6.88748 28.6346 6.79935 28.2646 6.91386C27.8946 7.02836 27.6149 7.32782 27.5309 7.69989C27.4468 8.07168 27.5711 8.45925 27.8569 8.7168C30.4291 11.033 32.119 14.1421 32.6474 17.5296C33.1758 20.9171 32.5108 24.3806 30.7625 27.3464C29.0145 30.3127 26.2878 32.6039 23.0334 33.8411C19.7791 35.0784 16.1922 35.1877 12.8661 34.1509C9.53982 33.1141 6.67376 30.9931 4.74212 28.1392C2.8099 25.285 1.9276 21.8689 2.24139 18.4554C2.55488 15.0422 4.04535 11.8361 6.46639 9.36756C8.88715 6.89904 12.0935 5.31633 15.5553 4.88088L14.6912 5.99875H14.6909C14.4564 6.30202 14.4043 6.70513 14.5547 7.05647C14.7048 7.4076 15.0343 7.65347 15.419 7.70134C15.8039 7.74921 16.1853 7.59173 16.4198 7.28847L18.7259 4.30589C18.8868 4.09782 18.9641 3.8389 18.9436 3.57835C18.9228 3.31779 18.8056 3.07382 18.6137 2.8924L15.8646 0.297655C15.5849 0.0335563 15.183 -0.0638113 14.8106 0.0419882C14.4378 0.147788 14.1509 0.44099 14.0581 0.81061C13.9651 1.18051 14.08 1.57108 14.3597 1.8349L15.3376 2.75775V2.75802C11.3799 3.24188 7.70914 5.03917 4.93354 7.85172C2.1578 10.6643 0.443814 14.3238 0.0749395 18.2242C-0.293665 22.1242 0.704974 26.0308 2.90612 29.2978C5.10695 32.5643 8.3779 34.9945 12.1772 36.1858C15.9769 37.377 20.0765 37.2582 23.7979 35.8485C27.5188 34.4388 30.6382 31.8234 32.6387 28.4345C34.6393 25.0462 35.4017 21.0881 34.7991 17.2161C34.1965 13.3441 32.2654 9.79031 29.3254 7.14376L29.3244 7.14504Z" fill="#3787FF"/>
<path d="M21.5504 5.29062C22.417 5.52289 23.2611 5.82969 24.0728 6.20747L24.7441 6.56921C25.0839 6.74899 25.4951 6.73812 25.8244 6.54065C26.1537 6.3432 26.3517 5.98907 26.3442 5.61022C26.3367 5.23134 26.1251 4.88483 25.7884 4.6999L25.065 4.31151C24.1187 3.86573 23.1334 3.50508 22.1212 3.23339C21.7476 3.13466 21.3488 3.23883 21.0743 3.50674C20.7999 3.77464 20.6913 4.16575 20.7894 4.53347C20.8877 4.90119 21.1776 5.1895 21.5506 5.29067L21.5504 5.29062Z" fill="#3787FF"/>
<path d="M16.4219 29.7678V31.4832C16.4219 31.864 16.629 32.2162 16.9647 32.4066C17.3006 32.597 17.7146 32.597 18.0502 32.4066C18.3862 32.2162 18.593 31.864 18.593 31.4832V29.7678C18.593 29.387 18.3862 29.0348 18.0502 28.8444C17.7146 28.654 17.3006 28.654 16.9647 28.8444C16.629 29.0348 16.4219 29.387 16.4219 29.7678Z" fill="#3787FF"/>
<path d="M9.07407 19.8744C9.07407 19.5918 8.95969 19.3206 8.75614 19.1205C8.55259 18.9206 8.27648 18.8082 7.98847 18.8082H6.2418C5.85408 18.8082 5.49575 19.0114 5.30185 19.3413C5.10772 19.6712 5.10772 20.0776 5.30185 20.4075C5.49571 20.7374 5.85407 20.9405 6.2418 20.9405H7.98847C8.27649 20.9405 8.5526 20.8282 8.75614 20.6283C8.95969 20.4284 9.07407 20.1572 9.07407 19.8744V19.8744Z" fill="#3787FF"/>
<path d="M28.9931 20.9404C29.3811 20.9404 29.7395 20.7373 29.9334 20.4074C30.1272 20.0774 30.1272 19.6711 29.9334 19.3412C29.7395 19.0113 29.3812 18.8081 28.9931 18.8081H27.2468C26.8588 18.8081 26.5004 19.0113 26.3065 19.3412C26.1127 19.6711 26.1127 20.0775 26.3065 20.4074C26.5004 20.7373 26.8587 20.9404 27.2468 20.9404H28.9931Z" fill="#3787FF"/>
<path d="M9.11948 29.0555C9.40749 29.0558 9.68388 28.9434 9.88714 28.743L11.1217 27.5305L11.1215 27.5308C11.389 27.2601 11.4912 26.8709 11.3898 26.507C11.2887 26.1431 10.9993 25.8592 10.6288 25.7596C10.2583 25.6601 9.86199 25.7605 9.58642 26.0232L8.35183 27.2357L8.35211 27.2354C8.14856 27.4353 8.03418 27.7065 8.03418 27.9894C8.03418 28.2719 8.14856 28.5431 8.35211 28.743C8.55566 28.9429 8.83176 29.0555 9.11949 29.0555L9.11948 29.0555Z" fill="#3787FF"/>
<path d="M25.1458 10.742L23.9106 11.9545H23.9104C23.7018 12.1533 23.5833 12.4261 23.5811 12.7117C23.5789 12.997 23.6935 13.2714 23.899 13.4735C24.1045 13.6753 24.3839 13.7879 24.6747 13.7857C24.9655 13.7836 25.243 13.6669 25.4457 13.4621L26.6808 12.2496V12.2499C26.9484 11.9792 27.0503 11.5897 26.9489 11.2261C26.8478 10.8622 26.5584 10.578 26.1879 10.4787C25.8176 10.3792 25.4214 10.4795 25.1458 10.742L25.1458 10.742Z" fill="#3787FF"/>
<path d="M11.5144 12.4159L10.2792 11.2028V11.2025C10.0037 10.9401 9.60739 10.8397 9.23685 10.9393C8.86658 11.0385 8.57718 11.3228 8.47585 11.6867C8.37477 12.0503 8.47668 12.4398 8.74421 12.7104L9.97936 13.9235C10.2546 14.1867 10.6515 14.2874 11.0223 14.1881C11.3931 14.0888 11.6828 13.8043 11.7839 13.4402C11.885 13.076 11.7825 12.6862 11.5144 12.4159L11.5144 12.4159Z" fill="#3787FF"/>
<path d="M25.1318 25.79C24.8562 25.5272 24.4599 25.4272 24.0894 25.5264C23.7191 25.626 23.4297 25.9102 23.3284 26.2738C23.2273 26.6377 23.3292 27.0269 23.5967 27.2976L24.8313 28.5101V28.5098C25.0338 28.7149 25.3113 28.8313 25.602 28.8334C25.8928 28.8356 26.1723 28.723 26.3777 28.5212C26.5832 28.3194 26.6979 28.045 26.6957 27.7594C26.6934 27.4738 26.5749 27.201 26.3664 27.0022L25.1318 25.79Z" fill="#3787FF"/>
</svg>
