<svg width="34" height="43" viewBox="0 0 34 43" fill="none" xmlns="http://www.w3.org/2000/svg">
<path d="M29.75 0H4.25C3.12321 0.00125199 2.04292 0.454688 1.24616 1.26082C0.449401 2.06696 0.00123743 3.15995 0 4.3V31.777C0.00650542 32.9197 0.455507 34.0142 1.25063 34.8257L8.07897 41.7344C8.88976 42.5257 9.96617 42.9778 11.0925 43H29.75C30.8768 42.9987 31.9571 42.5453 32.7538 41.7392C33.5506 40.933 33.9988 39.84 34 38.7V4.3C33.9988 3.15995 33.5506 2.06696 32.7538 1.26082C31.9571 0.454688 30.8768 0.00125199 29.75 0ZM4.83664 34.4H8.5V38.1065L4.83664 34.4ZM31.1667 38.7C31.1663 39.08 31.017 39.4444 30.7514 39.7131C30.4858 39.9819 30.1256 40.133 29.75 40.1333H11.3333V34.4C11.3325 33.64 11.0337 32.9113 10.5025 32.3739C9.97135 31.8365 9.25118 31.5342 8.5 31.5333H2.83333V4.3C2.83367 3.91996 2.98304 3.55559 3.24864 3.28686C3.51424 3.01813 3.87438 2.86701 4.25 2.86667H29.75C30.1256 2.86701 30.4858 3.01813 30.7514 3.28686C31.017 3.55559 31.1663 3.91996 31.1667 4.3V38.7Z" fill="#3159EC"/>
<path d="M9.91667 10.0333H24.0833C24.4591 10.0333 24.8194 9.88233 25.0851 9.61352C25.3507 9.34472 25.5 8.98015 25.5 8.60001C25.5 8.21986 25.3507 7.85529 25.0851 7.58649C24.8194 7.31768 24.4591 7.16667 24.0833 7.16667H9.91667C9.54094 7.16667 9.18061 7.31768 8.91493 7.58649C8.64926 7.85529 8.5 8.21986 8.5 8.60001C8.5 8.98015 8.64926 9.34472 8.91493 9.61352C9.18061 9.88233 9.54094 10.0333 9.91667 10.0333Z" fill="#3159EC"/>
<path d="M9.91667 18.6332H24.0833C24.4591 18.6332 24.8194 18.4822 25.0851 18.2134C25.3507 17.9446 25.5 17.58 25.5 17.1999C25.5 16.8198 25.3507 16.4552 25.0851 16.1864C24.8194 15.9176 24.4591 15.7666 24.0833 15.7666H9.91667C9.54094 15.7666 9.18061 15.9176 8.91493 16.1864C8.64926 16.4552 8.5 16.8198 8.5 17.1999C8.5 17.58 8.64926 17.9446 8.91493 18.2134C9.18061 18.4822 9.54094 18.6332 9.91667 18.6332Z" fill="#3159EC"/>
<path d="M25.5 25.7998C25.5 25.4196 25.3507 25.0551 25.0851 24.7863C24.8194 24.5175 24.4591 24.3665 24.0833 24.3665H9.91667C9.54094 24.3665 9.18061 24.5175 8.91493 24.7863C8.64926 25.0551 8.5 25.4196 8.5 25.7998C8.5 26.1799 8.64926 26.5445 8.91493 26.8133C9.18061 27.0821 9.54094 27.2331 9.91667 27.2331H24.0833C24.4591 27.2331 24.8194 27.0821 25.0851 26.8133C25.3507 26.5445 25.5 26.1799 25.5 25.7998Z" fill="#3159EC"/>
<path d="M25.5 32.9666H18.4167C18.0409 32.9666 17.6806 33.1176 17.4149 33.3864C17.1493 33.6552 17 34.0198 17 34.3999C17 34.7801 17.1493 35.1447 17.4149 35.4135C17.6806 35.6823 18.0409 35.8333 18.4167 35.8333H25.5C25.8757 35.8333 26.2361 35.6823 26.5017 35.4135C26.7674 35.1447 26.9167 34.7801 26.9167 34.3999C26.9167 34.0198 26.7674 33.6552 26.5017 33.3864C26.2361 33.1176 25.8757 32.9666 25.5 32.9666Z" fill="#3159EC"/>
</svg>
