<svg width="35" height="35" viewBox="0 0 35 35" fill="none" xmlns="http://www.w3.org/2000/svg">
<path d="M32.442 2.5577C29.0317 -0.852568 23.4788 -0.852568 20.0686 2.5577L15.1151 7.51121C14.433 8.19326 14.433 9.30246 15.1151 9.98452C15.7971 10.6666 16.9063 10.6666 17.5884 9.98452L22.5419 5.0379C24.588 2.99174 27.9156 2.99174 29.9687 5.0379C32.0148 7.08406 32.0148 10.4186 29.9687 12.4647L25.0152 17.4182C24.3331 18.1003 24.3331 19.2095 25.0152 19.8915C25.3596 20.236 26.2966 20.9387 27.4885 19.8915L32.442 14.938C35.8522 11.5278 35.8522 5.97486 32.442 2.5577Z" fill="#3159EC"/>
<path d="M17.4165 25.0102L12.4699 29.9568C10.4857 31.941 7.02721 31.941 5.04306 29.9568C4.05098 28.9648 3.50672 27.6489 3.50672 26.2434C3.50672 24.838 4.05098 23.5221 5.04306 22.53L9.98966 17.5765C10.6717 16.8945 10.6717 15.7853 9.98966 15.1032C9.30761 14.4212 8.19841 14.4212 7.51636 15.1032L2.56976 20.0567C0.909404 21.7102 0 23.9079 0 26.2503C0 28.5858 0.909404 30.7836 2.56287 32.437C4.21633 34.0905 6.41405 34.9999 8.74957 34.9999C11.0851 34.9999 13.2828 34.0905 14.9363 32.437L19.8829 27.4904C20.5649 26.8084 20.5649 25.6992 19.8829 25.0171C19.2008 24.3282 18.0985 24.3282 17.4165 25.0102Z" fill="#3159EC"/>
<path d="M22.2393 12.7607C21.5572 12.0786 20.448 12.0786 19.766 12.7607L11.0164 21.5103C10.3344 22.1923 10.3344 23.3015 11.0164 23.9836C11.3609 24.3281 12.2979 25.0101 13.4897 23.9836L22.2393 15.234C22.9213 14.5519 22.9213 13.4427 22.2393 12.7607Z" fill="#3159EC"/>
</svg>
