<svg width="110" height="43" viewBox="0 0 110 43" fill="none" xmlns="http://www.w3.org/2000/svg">
<g clip-path="url(#clip0_3322_10110)">
<path d="M48.8887 12.2857H58.0553V15.3571H48.8887V19.9643H64.1664V7.67857H54.9998V4.60714H64.1664V0H48.8887V12.2857Z" fill="#2B409E"/>
<path d="M91.6668 0H85.5557V19.9643H91.6668V0Z" fill="#2B409E"/>
<path d="M76.3883 3.07143H74.8606V6.14286H73.3328V0H67.2217V19.9643H73.3328V13.8214H74.8606V16.8929H76.3883V19.9643H82.4995V15.3571H80.9717V12.2857H79.4439V7.67857H80.9717V4.60714H82.4995V0H76.3883V3.07143Z" fill="#2B409E"/>
<path d="M109.999 4.60714V0H94.7217V19.9643H100.833V12.2857H109.999V7.67857H100.833V4.60714H109.999Z" fill="#2B409E"/>
<path d="M51.9442 23.0361V26.1076H48.8887V43.0004H54.9998V38.3933H58.0553V43.0004H64.1664V23.0361H51.9442ZM54.9998 33.7861V27.6433H58.0553V33.7861H54.9998Z" fill="#C7130C"/>
<path d="M67.2217 43.0004H73.3328V38.3933H79.4439V35.3218H82.4995V23.0361H67.2217V43.0004ZM76.3883 33.7861H73.3328V27.6433H76.3883V33.7861Z" fill="#C7130C"/>
<path d="M85.5557 23.0361V43.0004H91.6668V38.3933H97.7779V35.3218H100.833V23.0361H85.5557ZM94.7223 33.7861H91.6668V27.6433H94.7223V33.7861Z" fill="#C7130C"/>
<path d="M0 0.215C0 0.215 0 0 0.213889 0H10.1139C10.1139 0 10.3278 0 10.3278 0.215V10.1664C10.3278 10.1664 10.3278 10.3814 10.1139 10.3814H0.213889C0.213889 10.3814 0 10.3814 0 10.1664V0.215ZM1.68056 1.48964C1.68056 1.48964 1.46667 1.48964 1.46667 1.70464V8.69214C1.46667 8.69214 1.46667 8.90714 1.68056 8.90714H8.63194C8.63194 8.90714 8.84583 8.90714 8.84583 8.69214V1.68929C8.84583 1.68929 8.84583 1.47429 8.63194 1.47429H1.68056V1.48964Z" fill="#1E00B3"/>
<path d="M0 13.5607C0 13.5607 0 13.3457 0.213889 13.3457H2.75C2.75 13.3457 2.96389 13.3457 2.96389 13.5607V14.6203C2.96389 14.6203 2.96389 14.8353 2.75 14.8353H0.213889C0.213889 14.8353 0 14.8353 0 14.6203V13.5607Z" fill="#C71B00"/>
<path d="M0 16.5246C0 16.5246 0 16.3096 0.213889 16.3096H2.75C2.75 16.3096 2.96389 16.3096 2.96389 16.5246V19.0739C2.96389 19.0739 2.96389 19.2889 2.75 19.2889H0.213889C0.213889 19.2889 0 19.2889 0 19.0739V16.5246Z" fill="#C71B00"/>
<path d="M1.48194 20.9777C1.48194 20.9777 1.48194 20.7627 1.69583 20.7627H2.75C2.75 20.7627 2.96389 20.7627 2.96389 20.9777V22.0373C2.96389 22.0373 2.96389 22.2523 3.17778 22.2523H7.18056C7.18056 22.2523 7.39444 22.2523 7.39444 22.4673V23.527C7.39444 23.527 7.39444 23.742 7.18056 23.742H3.1625C3.1625 23.742 2.94861 23.742 2.94861 23.957V25.0166C2.94861 25.0166 2.94861 25.2316 3.1625 25.2316H4.21667C4.21667 25.2316 4.43056 25.2316 4.43056 25.4466V26.5063C4.43056 26.5063 4.43056 26.7213 4.21667 26.7213H3.1625C3.1625 26.7213 2.94861 26.7213 2.94861 26.9363V27.9959C2.94861 27.9959 2.94861 28.2109 2.73472 28.2109H0.213889C0.213889 28.2109 0 28.2109 0 27.9959V26.9363C0 26.9363 0 26.7213 0.213889 26.7213H1.26806C1.26806 26.7213 1.48194 26.7213 1.48194 26.5063V20.9777Z" fill="#C71B00"/>
<path d="M2.94861 28.38C2.94861 28.38 2.94861 28.165 3.1625 28.165H4.21667C4.21667 28.165 4.43056 28.165 4.43056 28.38V29.4397C4.43056 29.4397 4.43056 29.6547 4.64444 29.6547H5.69861C5.69861 29.6547 5.9125 29.6547 5.9125 29.8697V30.9293C5.9125 30.9293 5.9125 31.1443 5.69861 31.1443H0.213889C0.213889 31.1443 0 31.1443 0 30.9293V29.8697C0 29.8697 0 29.6547 0.213889 29.6547H2.75C2.75 29.6547 2.96389 29.6547 2.96389 29.4397V28.38H2.94861Z" fill="#C71B00"/>
<path d="M0 32.8332C0 32.8332 0 32.6182 0.213889 32.6182H10.1139C10.1139 32.6182 10.3278 32.6182 10.3278 32.8332V42.7846C10.3278 42.7846 10.3278 42.9996 10.1139 42.9996H0.213889C0.213889 42.9996 0 42.9996 0 42.7846V32.8332ZM1.68056 34.1078C1.68056 34.1078 1.46667 34.1078 1.46667 34.3228V41.3103C1.46667 41.3103 1.46667 41.5253 1.68056 41.5253H8.63194C8.63194 41.5253 8.84583 41.5253 8.84583 41.3103V34.3228C8.84583 34.3228 8.84583 34.1078 8.63194 34.1078H1.68056Z" fill="#1E00B3"/>
<path d="M2.94824 3.17887C2.94824 3.17887 2.94824 2.96387 3.16213 2.96387H7.16491C7.16491 2.96387 7.3788 2.96387 7.3788 3.17887V7.20244C7.3788 7.20244 7.3788 7.41744 7.16491 7.41744H3.16213C3.16213 7.41744 2.94824 7.41744 2.94824 7.20244V3.17887Z" fill="#1E00B3"/>
<path d="M2.94824 12.0705C2.94824 12.0705 2.94824 11.8555 3.16213 11.8555H4.2163C4.2163 11.8555 4.43019 11.8555 4.43019 12.0705V13.1301C4.43019 13.1301 4.43019 13.3451 4.2163 13.3451H3.16213C3.16213 13.3451 2.94824 13.3451 2.94824 13.1301V12.0705Z" fill="#C71B00"/>
<path d="M2.94824 19.4884C2.94824 19.4884 2.94824 19.2734 3.16213 19.2734H4.2163C4.2163 19.2734 4.43019 19.2734 4.43019 19.4884V20.5481C4.43019 20.5481 4.43019 20.7631 4.2163 20.7631H3.16213C3.16213 20.7631 2.94824 20.7631 2.94824 20.5481V19.4884Z" fill="#C71B00"/>
<path d="M2.94824 35.798C2.94824 35.798 2.94824 35.583 3.16213 35.583H7.16491C7.16491 35.583 7.3788 35.583 7.3788 35.798V39.8216C7.3788 39.8216 7.3788 40.0366 7.16491 40.0366H3.16213C3.16213 40.0366 2.94824 40.0366 2.94824 39.8216V35.798Z" fill="#1E00B3"/>
<path d="M4.43032 13.5607C4.43032 13.5607 4.43032 13.3457 4.64421 13.3457H7.18032C7.18032 13.3457 7.39421 13.3457 7.39421 13.5607V14.6203C7.39421 14.6203 7.39421 14.8353 7.18032 14.8353H6.11087C6.11087 14.8353 5.89698 14.8353 5.89698 15.0503V16.11C5.89698 16.11 5.89698 16.325 5.68309 16.325H4.62893C4.62893 16.325 4.41504 16.325 4.41504 16.11V13.5607H4.43032Z" fill="#C71B00"/>
<path d="M8.84607 15.0343C8.84607 15.0343 8.84607 14.8193 9.05996 14.8193H13.0627C13.0627 14.8193 13.2766 14.8193 13.2766 15.0343V17.5836C13.2766 17.5836 13.2766 17.7986 13.4905 17.7986H14.5447C14.5447 17.7986 14.7586 17.7986 14.7586 17.5836V16.524C14.7586 16.524 14.7586 16.309 14.9725 16.309H16.0266C16.0266 16.309 16.2405 16.309 16.2405 16.524V17.5836C16.2405 17.5836 16.2405 17.7986 16.4544 17.7986H18.9905C18.9905 17.7986 19.2044 17.7986 19.2044 18.0136V19.0733C19.2044 19.0733 19.2044 19.2883 19.4183 19.2883H20.4725C20.4725 19.2883 20.6864 19.2883 20.6864 19.5033V20.5629C20.6864 20.5629 20.6864 20.7779 20.9002 20.7779H21.9544C21.9544 20.7779 22.1683 20.7779 22.1683 20.5629V19.5033C22.1683 19.5033 22.1683 19.2883 22.3822 19.2883H23.4364C23.4364 19.2883 23.6502 19.2883 23.6502 19.5033V22.0526C23.6502 22.0526 23.6502 22.2676 23.4364 22.2676H22.3822C22.3822 22.2676 22.1683 22.2676 22.1683 22.4826V23.5422C22.1683 23.5422 22.1683 23.7572 21.9544 23.7572H20.9002C20.9002 23.7572 20.6864 23.7572 20.6864 23.5422V22.4826C20.6864 22.4826 20.6864 22.2676 20.4725 22.2676H19.4183C19.4183 22.2676 19.2044 22.2676 19.2044 22.0526V20.9929C19.2044 20.9929 19.2044 20.7779 18.9905 20.7779H17.9364C17.9364 20.7779 17.7225 20.7779 17.7225 20.5629V19.5033C17.7225 19.5033 17.7225 19.2883 17.5086 19.2883H14.9572C14.9572 19.2883 14.7433 19.2883 14.7433 19.5033V22.0526C14.7433 22.0526 14.7433 22.2676 14.9572 22.2676H16.0114C16.0114 22.2676 16.2252 22.2676 16.2252 22.4826V23.5422C16.2252 23.5422 16.2252 23.7572 16.0114 23.7572H14.9572C14.9572 23.7572 14.7433 23.7572 14.7433 23.9722V25.0318C14.7433 25.0318 14.7433 25.2468 14.5294 25.2468H13.4905C13.4905 25.2468 13.2766 25.2468 13.2766 25.0318V22.4826C13.2766 22.4826 13.2766 22.2676 13.0627 22.2676H12.0086C12.0086 22.2676 11.7947 22.2676 11.7947 22.0526V20.9929C11.7947 20.9929 11.7947 20.7779 12.0086 20.7779H13.0627C13.0627 20.7779 13.2766 20.7779 13.2766 20.5629V19.5033C13.2766 19.5033 13.2766 19.2883 13.0627 19.2883H12.0086C12.0086 19.2883 11.7947 19.2883 11.7947 19.5033V20.5629C11.7947 20.5629 11.7947 20.7779 11.5808 20.7779H10.5419C10.5419 20.7779 10.328 20.7779 10.328 20.5629V19.5033C10.328 19.5033 10.328 19.2883 10.1141 19.2883H6.11135C6.11135 19.2883 5.89746 19.2883 5.89746 19.0733V16.524C5.89746 16.524 5.89746 16.309 6.11135 16.309H8.64746C8.64746 16.309 8.86135 16.309 8.86135 16.094V15.0343H8.84607ZM9.05996 16.309C9.05996 16.309 8.84607 16.309 8.84607 16.524V17.5836C8.84607 17.5836 8.84607 17.7986 9.05996 17.7986H10.1141C10.1141 17.7986 10.328 17.7986 10.328 17.5836V16.524C10.328 16.524 10.328 16.309 10.1141 16.309H9.05996Z" fill="#C71B00"/>
<path d="M10.328 22.4523C10.328 22.4523 10.328 22.2373 10.5419 22.2373H11.5961C11.5961 22.2373 11.81 22.2373 11.81 22.4523V25.0016C11.81 25.0016 11.81 25.2166 11.5961 25.2166H9.05996C9.05996 25.2166 8.84607 25.2166 8.84607 25.4316V26.4912C8.84607 26.4912 8.84607 26.7062 8.63218 26.7062H6.11135C6.11135 26.7062 5.89746 26.7062 5.89746 26.4912V25.4316C5.89746 25.4316 5.89746 25.2166 6.11135 25.2166H7.16552C7.16552 25.2166 7.37941 25.2166 7.37941 25.0016V23.9419C7.37941 23.9419 7.37941 23.7269 7.59329 23.7269H10.1294C10.1294 23.7269 10.3433 23.7269 10.3433 23.5119V22.4523H10.328Z" fill="#C71B00"/>
<path d="M14.7581 7.63199C14.7581 7.63199 14.7581 7.41699 14.972 7.41699H17.5081C17.5081 7.41699 17.722 7.41699 17.722 7.63199V8.69163C17.722 8.69163 17.722 8.90664 17.5081 8.90664H16.4539C16.4539 8.90664 16.24 8.90664 16.24 9.12163V10.1813C16.24 10.1813 16.24 10.3963 16.4539 10.3963H17.5081C17.5081 10.3963 17.722 10.3963 17.722 10.1813V9.10628C17.722 9.10628 17.722 8.89128 17.9359 8.89128H18.99C18.99 8.89128 19.2039 8.89128 19.2039 9.10628V11.6556C19.2039 11.6556 19.2039 11.8706 19.4178 11.8706H20.472C20.472 11.8706 20.6859 11.8706 20.6859 12.0856V13.1452C20.6859 13.1452 20.6859 13.3602 20.472 13.3602H17.9359C17.9359 13.3602 17.722 13.3602 17.722 13.1452V12.0702C17.722 12.0702 17.722 11.8552 17.5081 11.8552H14.9567C14.9567 11.8552 14.7428 11.8552 14.7428 12.0702V13.1298C14.7428 13.1298 14.7428 13.3448 14.9567 13.3448H17.4928C17.4928 13.3448 17.7067 13.3448 17.7067 13.5598V14.6195C17.7067 14.6195 17.7067 14.8345 17.4928 14.8345H13.49C13.49 14.8345 13.2761 14.8345 13.2761 14.6195V13.5598C13.2761 13.5598 13.2761 13.3448 13.0622 13.3448H7.59279C7.59279 13.3448 7.37891 13.3448 7.37891 13.1298V12.0702C7.37891 12.0702 7.37891 11.8552 7.59279 11.8552H13.0775C13.0775 11.8552 13.2914 11.8552 13.2914 11.6402V10.5959C13.2914 10.5959 13.2914 10.3809 13.5053 10.3809H14.5595C14.5595 10.3809 14.7734 10.3809 14.7734 10.1659V7.63199H14.7581Z" fill="#C71B00"/>
<path d="M7.37891 28.38C7.37891 28.38 7.37891 28.165 7.5928 28.165H8.64696C8.64696 28.165 8.86085 28.165 8.86085 28.38V29.4397C8.86085 29.4397 8.86085 29.6547 9.07474 29.6547H10.1289C10.1289 29.6547 10.3428 29.6547 10.3428 29.8697V30.9293C10.3428 30.9293 10.3428 31.1443 10.1289 31.1443H7.5928C7.5928 31.1443 7.37891 31.1443 7.37891 30.9293V28.38Z" fill="#C71B00"/>
<path d="M8.8457 20.9777C8.8457 20.9777 8.8457 20.7627 9.05959 20.7627H10.1138C10.1138 20.7627 10.3276 20.7627 10.3276 20.9777V22.0373C10.3276 22.0373 10.3276 22.2523 10.1138 22.2523H9.05959C9.05959 22.2523 8.8457 22.2523 8.8457 22.0373V20.9777Z" fill="#C71B00"/>
<path d="M8.8457 26.9054C8.8457 26.9054 8.8457 26.6904 9.05959 26.6904H10.1138C10.1138 26.6904 10.3276 26.6904 10.3276 26.9054V27.9651C10.3276 27.9651 10.3276 28.1801 10.1138 28.1801H9.05959C9.05959 28.1801 8.8457 28.1801 8.8457 27.9651V26.9054Z" fill="#C71B00"/>
<path d="M11.7939 1.68961C11.7939 1.68961 11.7939 1.47461 12.0078 1.47461H14.5439C14.5439 1.47461 14.7578 1.47461 14.7578 1.68961V2.74925C14.7578 2.74925 14.7578 2.96425 14.5439 2.96425H13.4898C13.4898 2.96425 13.2759 2.96425 13.2759 3.17925V4.23889C13.2759 4.23889 13.2759 4.45389 13.4898 4.45389H14.5439C14.5439 4.45389 14.7578 4.45389 14.7578 4.66889V7.21818C14.7578 7.21818 14.7578 7.43318 14.5439 7.43318H13.4898C13.4898 7.43318 13.2759 7.43318 13.2759 7.64818V10.1975C13.2759 10.1975 13.2759 10.4125 13.062 10.4125H12.0078C12.0078 10.4125 11.7939 10.4125 11.7939 10.1975V1.68961Z" fill="#C71B00"/>
<path d="M11.7939 25.4162C11.7939 25.4162 11.7939 25.2012 12.0078 25.2012H13.062C13.062 25.2012 13.2759 25.2012 13.2759 25.4162V26.4758C13.2759 26.4758 13.2759 26.6908 13.062 26.6908H12.0078C12.0078 26.6908 11.7939 26.6908 11.7939 26.4758V25.4162Z" fill="#C71B00"/>
<path d="M13.2759 26.9054C13.2759 26.9054 13.2759 26.6904 13.4898 26.6904H14.5439C14.5439 26.6904 14.7578 26.6904 14.7578 26.9054V29.4547C14.7578 29.4547 14.7578 29.6697 14.5439 29.6697H13.4898C13.4898 29.6697 13.2759 29.6697 13.2759 29.8847V30.9444C13.2759 30.9444 13.2759 31.1594 13.4898 31.1594H14.5439C14.5439 31.1594 14.7578 31.1594 14.7578 31.3744V32.434C14.7578 32.434 14.7578 32.649 14.5439 32.649H13.4898C13.4898 32.649 13.2759 32.649 13.2759 32.864V35.4133C13.2759 35.4133 13.2759 35.6283 13.062 35.6283H12.0078C12.0078 35.6283 11.7939 35.6283 11.7939 35.4133V28.4258C11.7939 28.4258 11.7939 28.2108 12.0078 28.2108H13.062C13.062 28.2108 13.2759 28.2108 13.2759 27.9958V26.9054Z" fill="#C71B00"/>
<path d="M11.7939 38.7619C11.7939 38.7619 11.7939 38.5469 12.0078 38.5469H14.5439C14.5439 38.5469 14.7578 38.5469 14.7578 38.7619V39.8215C14.7578 39.8215 14.7578 40.0365 14.5439 40.0365H12.0078C12.0078 40.0365 11.7939 40.0365 11.7939 39.8215V38.7619Z" fill="#C71B00"/>
<path d="M14.7584 0.215C14.7584 0.215 14.7584 0 14.9723 0H20.4571C20.4571 0 20.6709 0 20.6709 0.215V1.27464C20.6709 1.27464 20.6709 1.48964 20.4571 1.48964H19.4029C19.4029 1.48964 19.189 1.48964 19.189 1.70464V2.76429C19.189 2.76429 19.189 2.97929 18.9751 2.97929H17.9209C17.9209 2.97929 17.7071 2.97929 17.7071 2.76429V1.68929C17.7071 1.68929 17.7071 1.47429 17.4932 1.47429H14.9571C14.9571 1.47429 14.7432 1.47429 14.7432 1.25929V0.215H14.7584Z" fill="#C71B00"/>
<path d="M14.7584 3.17887C14.7584 3.17887 14.7584 2.96387 14.9723 2.96387H16.0265C16.0265 2.96387 16.2404 2.96387 16.2404 3.17887V4.23851C16.2404 4.23851 16.2404 4.45351 16.0265 4.45351H14.9571C14.9571 4.45351 14.7432 4.45351 14.7432 4.23851V3.17887H14.7584Z" fill="#C71B00"/>
<path d="M16.2251 23.9416C16.2251 23.9416 16.2251 23.7266 16.439 23.7266H17.4932C17.4932 23.7266 17.7071 23.7266 17.7071 23.9416V26.4908C17.7071 26.4908 17.7071 26.7058 17.9209 26.7058H18.9751C18.9751 26.7058 19.189 26.7058 19.189 26.9208V29.4701C19.189 29.4701 19.189 29.6851 19.4029 29.6851H21.939C21.939 29.6851 22.1529 29.6851 22.1529 29.9001V30.9598C22.1529 30.9598 22.1529 31.1748 21.939 31.1748H20.8848C20.8848 31.1748 20.6709 31.1748 20.6709 31.3898V32.4494C20.6709 32.4494 20.6709 32.6644 20.4571 32.6644H19.4029C19.4029 32.6644 19.189 32.6644 19.189 32.8794V33.9391C19.189 33.9391 19.189 34.1541 18.9751 34.1541H17.9209C17.9209 34.1541 17.7071 34.1541 17.7071 33.9391V32.8794C17.7071 32.8794 17.7071 32.6644 17.4932 32.6644H16.439C16.439 32.6644 16.2251 32.6644 16.2251 32.4494V31.3898C16.2251 31.3898 16.2251 31.1748 16.0112 31.1748H14.9571C14.9571 31.1748 14.7432 31.1748 14.7432 30.9598V29.9001C14.7432 29.9001 14.7432 29.6851 14.9571 29.6851H17.4932C17.4932 29.6851 17.7071 29.6851 17.7071 29.4701V28.4105C17.7071 28.4105 17.7071 28.1955 17.4932 28.1955H16.439C16.439 28.1955 16.2251 28.1955 16.2251 27.9805V26.9208C16.2251 26.9208 16.2251 26.7058 16.0112 26.7058H14.9571C14.9571 26.7058 14.7432 26.7058 14.7432 26.4908V25.4312C14.7432 25.4312 14.7432 25.2162 14.9571 25.2162H16.0112C16.0112 25.2162 16.2251 25.2162 16.2251 25.0012V23.9416Z" fill="#C71B00"/>
<path d="M14.7584 32.8332C14.7584 32.8332 14.7584 32.6182 14.9723 32.6182H16.0265C16.0265 32.6182 16.2404 32.6182 16.2404 32.8332V33.8928C16.2404 33.8928 16.2404 34.1078 16.4543 34.1078H17.5084C17.5084 34.1078 17.7223 34.1078 17.7223 34.3228V36.8567C17.7223 36.8567 17.7223 37.0717 17.5084 37.0717H14.9571C14.9571 37.0717 14.7432 37.0717 14.7432 36.8567V32.8332H14.7584Z" fill="#C71B00"/>
<path d="M14.7584 40.2511C14.7584 40.2511 14.7584 40.0361 14.9723 40.0361H17.5084C17.5084 40.0361 17.7223 40.0361 17.7223 40.2511V41.3108C17.7223 41.3108 17.7223 41.5258 17.5084 41.5258H14.9571C14.9571 41.5258 14.7432 41.5258 14.7432 41.3108V40.2511H14.7584Z" fill="#C71B00"/>
<path d="M16.2246 4.65348C16.2246 4.65348 16.2246 4.43848 16.4385 4.43848H18.9746C18.9746 4.43848 19.1885 4.43848 19.1885 4.65348V7.20276C19.1885 7.20276 19.1885 7.41776 18.9746 7.41776H17.9204C17.9204 7.41776 17.7066 7.41776 17.7066 7.20276V6.14312C17.7066 6.14312 17.7066 5.92812 17.4927 5.92812H16.4385C16.4385 5.92812 16.2246 5.92812 16.2246 5.71312V4.65348Z" fill="#C71B00"/>
<path d="M17.707 15.0343C17.707 15.0343 17.707 14.8193 17.9209 14.8193H20.457C20.457 14.8193 20.6709 14.8193 20.6709 15.0343V16.094C20.6709 16.094 20.6709 16.309 20.457 16.309H17.9209C17.9209 16.309 17.707 16.309 17.707 16.094V15.0343Z" fill="#C71B00"/>
<path d="M17.707 37.2873C17.707 37.2873 17.707 37.0723 17.9209 37.0723H18.9751C18.9751 37.0723 19.189 37.0723 19.189 37.2873V39.8365C19.189 39.8365 19.189 40.0515 18.9751 40.0515H17.9209C17.9209 40.0515 17.707 40.0515 17.707 39.8365V37.2873Z" fill="#C71B00"/>
<path d="M36.8802 26.9054C36.8802 26.9054 36.8802 26.6904 37.0941 26.6904H39.6302C39.6302 26.6904 39.8441 26.6904 39.8441 26.9054V27.9651C39.8441 27.9651 39.8441 28.1801 39.6302 28.1801H38.5761C38.5761 28.1801 38.3622 28.1801 38.3622 28.3951V29.4547C38.3622 29.4547 38.3622 29.6697 38.1483 29.6697H37.0941C37.0941 29.6697 36.8802 29.6697 36.8802 29.8847V30.9444C36.8802 30.9444 36.8802 31.1594 37.0941 31.1594H38.1483C38.1483 31.1594 38.3622 31.1594 38.3622 31.3744V32.434C38.3622 32.434 38.3622 32.649 38.5761 32.649H41.1122C41.1122 32.649 41.3261 32.649 41.3261 32.434V31.3744C41.3261 31.3744 41.3261 31.1594 41.1122 31.1594H40.058C40.058 31.1594 39.8441 31.1594 39.8441 30.9444V28.3951C39.8441 28.3951 39.8441 28.1801 40.058 28.1801H41.1122C41.1122 28.1801 41.3261 28.1801 41.3261 28.3951V29.4547C41.3261 29.4547 41.3261 29.6697 41.54 29.6697H42.5941C42.5941 29.6697 42.808 29.6697 42.808 29.8847V36.8569C42.808 36.8569 42.808 37.0719 42.5941 37.0719H41.54C41.54 37.0719 41.3261 37.0719 41.3261 36.8569V34.3076C41.3261 34.3076 41.3261 34.0926 41.1122 34.0926H38.5761C38.5761 34.0926 38.3622 34.0926 38.3622 34.3076V35.3672C38.3622 35.3672 38.3622 35.5822 38.1483 35.5822H37.0941C37.0941 35.5822 36.8802 35.5822 36.8802 35.7972V38.3465C36.8802 38.3465 36.8802 38.5615 37.0941 38.5615H39.6302C39.6302 38.5615 39.8441 38.5615 39.8441 38.3465V37.2869C39.8441 37.2869 39.8441 37.0719 40.058 37.0719H41.1122C41.1122 37.0719 41.3261 37.0719 41.3261 37.2869V38.3465C41.3261 38.3465 41.3261 38.5615 41.54 38.5615H42.5941C42.5941 38.5615 42.808 38.5615 42.808 38.7765V39.8361C42.808 39.8361 42.808 40.0511 42.5941 40.0511H35.6427C35.6427 40.0511 35.4288 40.0511 35.4288 39.8361V38.7765C35.4288 38.7765 35.4288 38.5615 35.215 38.5615H34.1608C34.1608 38.5615 33.9469 38.5615 33.9469 38.3465V37.2869C33.9469 37.2869 33.9469 37.0719 33.733 37.0719H31.1969C31.1969 37.0719 30.983 37.0719 30.983 37.2869V38.3465C30.983 38.3465 30.983 38.5615 30.7691 38.5615H28.233C28.233 38.5615 28.0191 38.5615 28.0191 38.7765V39.8361C28.0191 39.8361 28.0191 40.0511 27.8052 40.0511H26.7511C26.7511 40.0511 26.5372 40.0511 26.5372 39.8361V38.7765C26.5372 38.7765 26.5372 38.5615 26.3233 38.5615H25.2691C25.2691 38.5615 25.0552 38.5615 25.0552 38.3465V37.2869C25.0552 37.2869 25.0552 37.0719 24.8413 37.0719H23.7872C23.7872 37.0719 23.5733 37.0719 23.5733 37.2869V38.3465C23.5733 38.3465 23.5733 38.5615 23.7872 38.5615H24.8413C24.8413 38.5615 25.0552 38.5615 25.0552 38.7765V39.8361C25.0552 39.8361 25.0552 40.0511 24.8413 40.0511H23.7872C23.7872 40.0511 23.5733 40.0511 23.5733 40.2661V41.3258C23.5733 41.3258 23.5733 41.5408 23.3594 41.5408H20.8233C20.8233 41.5408 20.6094 41.5408 20.6094 41.7558V42.8154C20.6094 42.8154 20.6094 43.0304 20.3955 43.0304H17.8594C17.8594 43.0304 17.6455 43.0304 17.6455 42.8154V41.7558C17.6455 41.7558 17.6455 41.5408 17.8594 41.5408H18.9136C18.9136 41.5408 19.1275 41.5408 19.1275 41.3258V40.2661C19.1275 40.2661 19.1275 40.0511 19.3413 40.0511H21.8775C21.8775 40.0511 22.0913 40.0511 22.0913 39.8361V35.8126C22.0913 35.8126 22.0913 35.5976 22.3052 35.5976H23.3594C23.3594 35.5976 23.5733 35.5976 23.5733 35.3826V32.8333C23.5733 32.8333 23.5733 32.6183 23.7872 32.6183H24.8413C24.8413 32.6183 25.0552 32.6183 25.0552 32.8333V35.3826C25.0552 35.3826 25.0552 35.5976 25.2691 35.5976H26.3233C26.3233 35.5976 26.5372 35.5976 26.5372 35.8126V36.8569C26.5372 36.8569 26.5372 37.0719 26.7511 37.0719H27.8052C27.8052 37.0719 28.0191 37.0719 28.0191 36.8569V35.7972C28.0191 35.7972 28.0191 35.5822 27.8052 35.5822H26.7511C26.7511 35.5822 26.5372 35.5822 26.5372 35.3672V32.8179C26.5372 32.8179 26.5372 32.6029 26.7511 32.6029H27.8052C27.8052 32.6029 28.0191 32.6029 28.0191 32.8179V33.8776C28.0191 33.8776 28.0191 34.0926 28.233 34.0926H29.2872C29.2872 34.0926 29.5011 34.0926 29.5011 33.8776V32.8179C29.5011 32.8179 29.5011 32.6029 29.2872 32.6029H28.233C28.233 32.6029 28.0191 32.6029 28.0191 32.3879V29.8386C28.0191 29.8386 28.0191 29.6236 28.233 29.6236H30.7691C30.7691 29.6236 30.983 29.6236 30.983 29.4086V28.349C30.983 28.349 30.983 28.134 31.1969 28.134H36.6663C36.6663 28.134 36.8802 28.134 36.8802 27.919V26.9054ZM31.1816 31.144C31.1816 31.144 30.9677 31.144 30.9677 31.359V35.3826C30.9677 35.3826 30.9677 35.5976 31.1816 35.5976H35.1844C35.1844 35.5976 35.3983 35.5976 35.3983 35.3826V31.359C35.3983 31.359 35.3983 31.144 35.1844 31.144H31.1816Z" fill="#C71B00"/>
<path d="M22.1221 0.215C22.1221 0.215 22.1221 0 22.336 0H23.3901C23.3901 0 23.604 0 23.604 0.215V1.27464C23.604 1.27464 23.604 1.48964 23.8179 1.48964H24.8721C24.8721 1.48964 25.086 1.48964 25.086 1.70464V2.76429C25.086 2.76429 25.086 2.97929 25.2999 2.97929H26.354C26.354 2.97929 26.5679 2.97929 26.5679 3.19429V4.25393C26.5679 4.25393 26.5679 4.46893 26.7818 4.46893H27.836C27.836 4.46893 28.0499 4.46893 28.0499 4.68393V10.1971C28.0499 10.1971 28.0499 10.4121 27.836 10.4121H26.7818C26.7818 10.4121 26.5679 10.4121 26.5679 10.1971V9.10679C26.5679 9.10679 26.5679 8.89179 26.354 8.89179H25.2999C25.2999 8.89179 25.086 8.89179 25.086 8.67679V7.6325C25.086 7.6325 25.086 7.4175 25.2999 7.4175H26.354C26.354 7.4175 26.5679 7.4175 26.5679 7.2025V6.14286C26.5679 6.14286 26.5679 5.92786 26.354 5.92786H25.2999C25.2999 5.92786 25.086 5.92786 25.086 5.71286V4.65321C25.086 4.65321 25.086 4.43821 24.8721 4.43821H22.336C22.336 4.43821 22.1221 4.43821 22.1221 4.65321V5.71286C22.1221 5.71286 22.1221 5.92786 21.9082 5.92786H20.854C20.854 5.92786 20.6401 5.92786 20.6401 5.71286V4.65321C20.6401 4.65321 20.6401 4.43821 20.4263 4.43821H19.3721C19.3721 4.43821 19.1582 4.43821 19.1582 4.22321V3.17893C19.1582 3.17893 19.1582 2.96393 19.3721 2.96393H20.4263C20.4263 2.96393 20.6401 2.96393 20.6401 2.74893V1.68929C20.6401 1.68929 20.6401 1.47429 20.854 1.47429H21.9082C21.9082 1.47429 22.1221 1.47429 22.1221 1.25929V0.215Z" fill="#C71B00"/>
<path d="M19.1738 23.9416C19.1738 23.9416 19.1738 23.7266 19.3877 23.7266H20.4419C20.4419 23.7266 20.6558 23.7266 20.6558 23.9416V25.0012C20.6558 25.0012 20.6558 25.2162 20.8697 25.2162H21.9238C21.9238 25.2162 22.1377 25.2162 22.1377 25.4312V27.9805C22.1377 27.9805 22.1377 28.1955 21.9238 28.1955H20.8697C20.8697 28.1955 20.6558 28.1955 20.6558 27.9805V26.9208C20.6558 26.9208 20.6558 26.7058 20.4419 26.7058H19.3877C19.3877 26.7058 19.1738 26.7058 19.1738 26.4908V23.9416Z" fill="#C71B00"/>
<path d="M19.1738 34.3078C19.1738 34.3078 19.1738 34.0928 19.3877 34.0928H21.9238C21.9238 34.0928 22.1377 34.0928 22.1377 34.3078V35.3674C22.1377 35.3674 22.1377 35.5824 21.9238 35.5824H20.8697C20.8697 35.5824 20.6558 35.5824 20.6558 35.7974V36.8571C20.6558 36.8571 20.6558 37.0721 20.4419 37.0721H19.3877C19.3877 37.0721 19.1738 37.0721 19.1738 36.8571V34.3078Z" fill="#C71B00"/>
<path d="M20.6556 9.1066C20.6556 9.1066 20.6556 8.8916 20.8694 8.8916H21.9236C21.9236 8.8916 22.1375 8.8916 22.1375 9.1066V10.1662C22.1375 10.1662 22.1375 10.3812 22.3514 10.3812H23.4056C23.4056 10.3812 23.6194 10.3812 23.6194 10.1662V9.1066C23.6194 9.1066 23.6194 8.8916 23.8333 8.8916H24.8875C24.8875 8.8916 25.1014 8.8916 25.1014 9.1066V10.1662C25.1014 10.1662 25.1014 10.3812 25.3153 10.3812H26.3694C26.3694 10.3812 26.5833 10.3812 26.5833 10.5962V14.6198C26.5833 14.6198 26.5833 14.8348 26.7972 14.8348H27.8514C27.8514 14.8348 28.0653 14.8348 28.0653 15.0498V16.1095C28.0653 16.1095 28.0653 16.3245 28.2792 16.3245H29.3333C29.3333 16.3245 29.5472 16.3245 29.5472 16.1095V12.0705C29.5472 12.0705 29.5472 11.8555 29.7611 11.8555H32.2972C32.2972 11.8555 32.5111 11.8555 32.5111 12.0705V13.1302C32.5111 13.1302 32.5111 13.3452 32.2972 13.3452H31.2431C31.2431 13.3452 31.0292 13.3452 31.0292 13.5602V14.6198C31.0292 14.6198 31.0292 14.8348 31.2431 14.8348H32.2972C32.2972 14.8348 32.5111 14.8348 32.5111 15.0498V16.1095C32.5111 16.1095 32.5111 16.3245 32.2972 16.3245H31.2431C31.2431 16.3245 31.0292 16.3245 31.0292 16.5395V17.5991C31.0292 17.5991 31.0292 17.8141 31.2431 17.8141H32.2972C32.2972 17.8141 32.5111 17.8141 32.5111 17.5991V16.5395C32.5111 16.5395 32.5111 16.3245 32.725 16.3245H33.7792C33.7792 16.3245 33.9931 16.3245 33.9931 16.1095V12.0705C33.9931 12.0705 33.9931 11.8555 34.2069 11.8555H41.1583C41.1583 11.8555 41.3722 11.8555 41.3722 12.0705V13.1302C41.3722 13.1302 41.3722 13.3452 41.5861 13.3452H42.6403C42.6403 13.3452 42.8542 13.3452 42.8542 13.5602V16.1095C42.8542 16.1095 42.8542 16.3245 42.6403 16.3245H41.5861C41.5861 16.3245 41.3722 16.3245 41.3722 16.1095V15.0345C41.3722 15.0345 41.3722 14.8195 41.1583 14.8195H40.1042C40.1042 14.8195 39.8903 14.8195 39.8903 14.6045V13.5602C39.8903 13.5602 39.8903 13.3452 39.6764 13.3452H37.1403C37.1403 13.3452 36.9264 13.3452 36.9264 13.5602V14.6198C36.9264 14.6198 36.9264 14.8348 36.7125 14.8348H35.6583C35.6583 14.8348 35.4444 14.8348 35.4444 15.0498V16.1095C35.4444 16.1095 35.4444 16.3245 35.6583 16.3245H38.1944C38.1944 16.3245 38.4083 16.3245 38.4083 16.5395V17.5991C38.4083 17.5991 38.4083 17.8141 38.1944 17.8141H34.1917C34.1917 17.8141 33.9778 17.8141 33.9778 18.0291V22.0527C33.9778 22.0527 33.9778 22.2677 33.7639 22.2677H32.7097C32.7097 22.2677 32.4958 22.2677 32.4958 22.4827V23.5423C32.4958 23.5423 32.4958 23.7573 32.7097 23.7573H36.6667C36.6667 23.7573 36.8806 23.7573 36.8806 23.9723V25.032C36.8806 25.032 36.8806 25.247 36.6667 25.247H32.6639C32.6639 25.247 32.45 25.247 32.45 25.462V26.5216C32.45 26.5216 32.45 26.7366 32.2361 26.7366H31.1819C31.1819 26.7366 30.9681 26.7366 30.9681 26.5216V21.0084C30.9681 21.0084 30.9681 20.7934 31.1819 20.7934H32.2361C32.2361 20.7934 32.45 20.7934 32.45 20.5784V19.5187C32.45 19.5187 32.45 19.3037 32.2361 19.3037H31.1819C31.1819 19.3037 30.9681 19.3037 30.9681 19.5187V20.5784C30.9681 20.5784 30.9681 20.7934 30.7542 20.7934H29.7C29.7 20.7934 29.4861 20.7934 29.4861 21.0084V25.032C29.4861 25.032 29.4861 25.247 29.2722 25.247H28.2181C28.2181 25.247 28.0042 25.247 28.0042 25.462V26.5216C28.0042 26.5216 28.0042 26.7366 28.2181 26.7366H29.2722C29.2722 26.7366 29.4861 26.7366 29.4861 26.9516V28.0112C29.4861 28.0112 29.4861 28.2262 29.2722 28.2262H28.2181C28.2181 28.2262 28.0042 28.2262 28.0042 28.4412V29.5009C28.0042 29.5009 28.0042 29.7159 27.7903 29.7159H23.7875C23.7875 29.7159 23.5736 29.7159 23.5736 29.5009V23.9877C23.5736 23.9877 23.5736 23.7727 23.7875 23.7727H26.3236C26.3236 23.7727 26.5375 23.7727 26.5375 23.5577V22.498C26.5375 22.498 26.5375 22.283 26.7514 22.283H27.8056C27.8056 22.283 28.0194 22.283 28.0194 22.068V21.0084C28.0194 21.0084 28.0194 20.7934 27.8056 20.7934H26.7514C26.7514 20.7934 26.5375 20.7934 26.5375 21.0084V22.068C26.5375 22.068 26.5375 22.283 26.3236 22.283H25.2694C25.2694 22.283 25.0556 22.283 25.0556 22.068V19.5187C25.0556 19.5187 25.0556 19.3037 25.2694 19.3037H26.3236C26.3236 19.3037 26.5375 19.3037 26.5375 19.0887V18.0291C26.5375 18.0291 26.5375 17.8141 26.3236 17.8141H22.3208C22.3208 17.8141 22.1069 17.8141 22.1069 17.5991V16.5395C22.1069 16.5395 22.1069 16.3245 22.3208 16.3245H23.375C23.375 16.3245 23.5889 16.3245 23.5889 16.1095V15.0345C23.5889 15.0345 23.5889 14.8195 23.8028 14.8195H24.8569C24.8569 14.8195 25.0708 14.8195 25.0708 14.6045V13.5602C25.0708 13.5602 25.0708 13.3452 24.8569 13.3452H23.8028C23.8028 13.3452 23.5889 13.3452 23.5889 13.1302V12.0705C23.5889 12.0705 23.5889 11.8555 23.375 11.8555H20.8389C20.8389 11.8555 20.625 11.8555 20.625 11.6405V9.1066H20.6556ZM28.2333 17.7987C28.2333 17.7987 28.0194 17.7987 28.0194 18.0137V19.0734C28.0194 19.0734 28.0194 19.2884 28.2333 19.2884H29.2875C29.2875 19.2884 29.5014 19.2884 29.5014 19.0734V18.0137C29.5014 18.0137 29.5014 17.7987 29.2875 17.7987H28.2333ZM25.2847 25.2009C25.2847 25.2009 25.0708 25.2009 25.0708 25.4159V27.9652C25.0708 27.9652 25.0708 28.1802 25.2847 28.1802H26.3389C26.3389 28.1802 26.5528 28.1802 26.5528 27.9652V25.4159C26.5528 25.4159 26.5528 25.2009 26.3389 25.2009H25.2847Z" fill="#C71B00"/>
<path d="M22.1221 6.14273C22.1221 6.14273 22.1221 5.92773 22.336 5.92773H24.8721C24.8721 5.92773 25.086 5.92773 25.086 6.14273V7.20238C25.086 7.20238 25.086 7.41738 24.8721 7.41738H22.336C22.336 7.41738 22.1221 7.41738 22.1221 7.20238V6.14273Z" fill="#C71B00"/>
<path d="M22.1221 31.3439C22.1221 31.3439 22.1221 31.1289 22.336 31.1289H23.3901C23.3901 31.1289 23.604 31.1289 23.604 31.3439V32.4035C23.604 32.4035 23.604 32.6185 23.3901 32.6185H22.336C22.336 32.6185 22.1221 32.6185 22.1221 32.4035V31.3439Z" fill="#C71B00"/>
<path d="M23.6045 41.7257C23.6045 41.7257 23.6045 41.5107 23.8184 41.5107H24.8726C24.8726 41.5107 25.0864 41.5107 25.0864 41.7257V42.7854C25.0864 42.7854 25.0864 43.0004 24.8726 43.0004H23.8184C23.8184 43.0004 23.6045 43.0004 23.6045 42.7854V41.7257Z" fill="#C71B00"/>
<path d="M25.0713 31.3439C25.0713 31.3439 25.0713 31.1289 25.2852 31.1289H26.3393C26.3393 31.1289 26.5532 31.1289 26.5532 31.3439V32.4035C26.5532 32.4035 26.5532 32.6185 26.3393 32.6185H25.2852C25.2852 32.6185 25.0713 32.6185 25.0713 32.4035V31.3439Z" fill="#C71B00"/>
<path d="M25.0713 40.2511C25.0713 40.2511 25.0713 40.0361 25.2852 40.0361H26.3393C26.3393 40.0361 26.5532 40.0361 26.5532 40.2511V41.3108C26.5532 41.3108 26.5532 41.5258 26.3393 41.5258H25.2852C25.2852 41.5258 25.0713 41.5258 25.0713 41.3108V40.2511Z" fill="#C71B00"/>
<path d="M26.5527 41.7257C26.5527 41.7257 26.5527 41.5107 26.7666 41.5107H27.8208C27.8208 41.5107 28.0347 41.5107 28.0347 41.7257V42.7854C28.0347 42.7854 28.0347 43.0004 27.8208 43.0004H26.7666C26.7666 43.0004 26.5527 43.0004 26.5527 42.7854V41.7257Z" fill="#C71B00"/>
<path d="M28.0195 0.215C28.0195 0.215 28.0195 0 28.2334 0H30.7695C30.7695 0 30.9834 0 30.9834 0.215V4.23857C30.9834 4.23857 30.9834 4.45357 30.7695 4.45357H28.2334C28.2334 4.45357 28.0195 4.45357 28.0195 4.23857V3.17893C28.0195 3.17893 28.0195 2.96393 28.2334 2.96393H29.2876C29.2876 2.96393 29.5015 2.96393 29.5015 2.74893V1.68929C29.5015 1.68929 29.5015 1.47429 29.2876 1.47429H28.2334C28.2334 1.47429 28.0195 1.47429 28.0195 1.25929V0.215Z" fill="#C71B00"/>
<path d="M28.0195 10.5968C28.0195 10.5968 28.0195 10.3818 28.2334 10.3818H29.2876C29.2876 10.3818 29.5015 10.3818 29.5015 10.5968V11.6565C29.5015 11.6565 29.5015 11.8715 29.2876 11.8715H28.2334C28.2334 11.8715 28.0195 11.8715 28.0195 11.6565V10.5968Z" fill="#C71B00"/>
<path d="M29.501 7.63199C29.501 7.63199 29.501 7.41699 29.7149 7.41699H30.769C30.769 7.41699 30.9829 7.41699 30.9829 7.63199V10.1813C30.9829 10.1813 30.9829 10.3963 30.769 10.3963H29.7149C29.7149 10.3963 29.501 10.3963 29.501 10.1813V7.63199Z" fill="#C71B00"/>
<path d="M30.9834 38.7619C30.9834 38.7619 30.9834 38.5469 31.1973 38.5469H32.2515C32.2515 38.5469 32.4653 38.5469 32.4653 38.7619V39.8215C32.4653 39.8215 32.4653 40.0365 32.6792 40.0365H33.7334C33.7334 40.0365 33.9473 40.0365 33.9473 40.2515V41.3112C33.9473 41.3112 33.9473 41.5262 33.7334 41.5262H32.6792C32.6792 41.5262 32.4653 41.5262 32.4653 41.7412V42.8008C32.4653 42.8008 32.4653 43.0158 32.2515 43.0158H31.1973C31.1973 43.0158 30.9834 43.0158 30.9834 42.8008V38.7619Z" fill="#C71B00"/>
<path d="M32.4502 0.215C32.4502 0.215 32.4502 0 32.6641 0H42.5641C42.5641 0 42.778 0 42.778 0.215V10.1664C42.778 10.1664 42.778 10.3814 42.5641 10.3814H32.6641C32.6641 10.3814 32.4502 10.3814 32.4502 10.1664V0.215ZM34.1308 1.48964C34.1308 1.48964 33.9169 1.48964 33.9169 1.70464V8.69214C33.9169 8.69214 33.9169 8.90714 34.1308 8.90714H41.0821C41.0821 8.90714 41.296 8.90714 41.296 8.69214V1.68929C41.296 1.68929 41.296 1.47429 41.0821 1.47429H34.1308V1.48964Z" fill="#1E00B3"/>
<path d="M32.4502 32.8332C32.4502 32.8332 32.4502 32.6182 32.6641 32.6182H33.7182C33.7182 32.6182 33.9321 32.6182 33.9321 32.8332V33.8928C33.9321 33.8928 33.9321 34.1078 33.7182 34.1078H32.6641C32.6641 34.1078 32.4502 34.1078 32.4502 33.8928V32.8332Z" fill="#C71B00"/>
<path d="M33.9316 41.7257C33.9316 41.7257 33.9316 41.5107 34.1455 41.5107H38.1483C38.1483 41.5107 38.3622 41.5107 38.3622 41.7257V42.7854C38.3622 42.7854 38.3622 43.0004 38.1483 43.0004H34.1455C34.1455 43.0004 33.9316 43.0004 33.9316 42.7854V41.7257Z" fill="#C71B00"/>
<path d="M35.3984 3.17887C35.3984 3.17887 35.3984 2.96387 35.6123 2.96387H39.6151C39.6151 2.96387 39.829 2.96387 39.829 3.17887V7.20244C39.829 7.20244 39.829 7.41744 39.6151 7.41744H35.6123C35.6123 7.41744 35.3984 7.41744 35.3984 7.20244V3.17887Z" fill="#1E00B3"/>
<path d="M36.8809 19.4884C36.8809 19.4884 36.8809 19.2734 37.0948 19.2734H38.1489C38.1489 19.2734 38.3628 19.2734 38.3628 19.4884V20.5481C38.3628 20.5481 38.3628 20.7631 38.5767 20.7631H39.6309C39.6309 20.7631 39.8447 20.7631 39.8447 20.9781V22.0377C39.8447 22.0377 39.8448 22.2527 39.6309 22.2527H38.5767C38.5767 22.2527 38.3628 22.2527 38.3628 22.4677V23.5274C38.3628 23.5274 38.3628 23.7424 38.1489 23.7424H37.0948C37.0948 23.7424 36.8809 23.7424 36.8809 23.5274V19.4884Z" fill="#C71B00"/>
<path d="M38.3477 15.0343C38.3477 15.0343 38.3477 14.8193 38.5615 14.8193H39.6157C39.6157 14.8193 39.8296 14.8193 39.8296 15.0343V16.094C39.8296 16.094 39.8296 16.309 39.6157 16.309H38.5615C38.5615 16.309 38.3477 16.309 38.3477 16.094V15.0343Z" fill="#C71B00"/>
<path d="M39.8291 17.9982C39.8291 17.9982 39.8291 17.7832 40.043 17.7832H41.0972C41.0972 17.7832 41.3111 17.7832 41.3111 17.9982V19.0578C41.3111 19.0578 41.311 19.2728 41.0972 19.2728H40.043C40.043 19.2728 39.8291 19.2728 39.8291 19.0578V17.9982Z" fill="#C71B00"/>
<path d="M41.2959 19.4884C41.2959 19.4884 41.2959 19.2734 41.5098 19.2734H42.5639C42.5639 19.2734 42.7778 19.2734 42.7778 19.4884V23.512C42.7778 23.512 42.7778 23.727 42.5639 23.727H41.5098C41.5098 23.727 41.2959 23.727 41.2959 23.512V19.4884Z" fill="#C71B00"/>
<path d="M41.2959 25.4162C41.2959 25.4162 41.2959 25.2012 41.5098 25.2012H42.5639C42.5639 25.2012 42.7778 25.2012 42.7778 25.4162V27.9655C42.7778 27.9655 42.7778 28.1805 42.5639 28.1805H41.5098C41.5098 28.1805 41.2959 28.1805 41.2959 27.9655V25.4162Z" fill="#C71B00"/>
<path d="M41.2959 41.7257C41.2959 41.7257 41.2959 41.5107 41.5098 41.5107H42.5639C42.5639 41.5107 42.7778 41.5107 42.7778 41.7257V42.7854C42.7778 42.7854 42.7778 43.0004 42.5639 43.0004H41.5098C41.5098 43.0004 41.2959 43.0004 41.2959 42.7854V41.7257Z" fill="#C71B00"/>
</g>
<defs>
<clipPath id="clip0_3322_10110">
<rect width="110" height="43" fill="white"/>
</clipPath>
</defs>
</svg>
