<svg width="18" height="18" viewBox="0 0 18 18" fill="none" xmlns="http://www.w3.org/2000/svg">
<path d="M17.3079 0.249322C17.1406 0.138703 16.9536 0.0627481 16.7575 0.0257954C16.5614 -0.0111573 16.3601 -0.00838351 16.1651 0.0339583C15.9701 0.0763001 15.7851 0.15738 15.6209 0.272567C15.4566 0.387754 15.3162 0.53479 15.2077 0.705276L6.69887 14.0698L2.54923 10.1601C2.40282 10.0222 2.23119 9.915 2.04412 9.84465C1.85706 9.7743 1.65823 9.74218 1.45898 9.75013C1.05659 9.76619 0.676932 9.94447 0.403538 10.2458C0.130144 10.5471 -0.0145937 10.9467 0.00116415 11.3567C0.016922 11.7667 0.191885 12.1536 0.487564 12.4322L5.93606 17.5653C5.93606 17.5653 6.09247 17.7025 6.16486 17.7504C6.33214 17.8611 6.51919 17.9372 6.71532 17.9742C6.91146 18.0112 7.11282 18.0084 7.30791 17.9661C7.50299 17.9237 7.68798 17.8426 7.85229 17.7274C8.0166 17.6121 8.15701 17.465 8.2655 17.2945L17.7553 2.38932C17.8639 2.21888 17.9384 2.02831 17.9747 1.82851C18.0109 1.62871 18.0082 1.42359 17.9667 1.22486C17.9251 1.02613 17.8456 0.837691 17.7325 0.670305C17.6195 0.50292 17.4752 0.359868 17.3079 0.249322Z" fill="#1F2634"/>
</svg>
