<svg width="210" height="34" viewBox="0 0 210 34" fill="none" xmlns="http://www.w3.org/2000/svg">
<path d="M0 20.9231H15.75V26.1538H0V34H26.25V13.0769H10.5V7.84615H26.25V0H0V20.9231Z" fill="#2B409E"/>
<path d="M73.5 0H63V34H73.5V0Z" fill="#2B409E"/>
<path d="M47.25 5.23077H44.625V10.4615H42V0H31.5V34H42V23.5385H44.625V28.7692H47.25V34H57.75V26.1538H55.125V20.9231H52.5V13.0769H55.125V7.84615H57.75V0H47.25V5.23077Z" fill="#2B409E"/>
<path d="M105 7.84615V0H78.75V34H89.25V20.9231H105V13.0769H89.25V7.84615H105Z" fill="#2B409E"/>
<path d="M120.75 34H131.25V26.1538H141.75V20.9231H147V0H120.75V34ZM136.5 18.3077H131.25V7.84615H136.5V18.3077Z" fill="#C7130C"/>
<path d="M183.75 0V34H210V0H183.75ZM199.5 26.1538H194.25V7.84615H199.5V26.1538Z" fill="#C7130C"/>
<path d="M152.25 34H162.75V26.1538H168V34H178.5V26.1538H173.25V20.9231H178.5V0H152.25V34ZM168 18.3077H162.75V7.84615H168V18.3077Z" fill="#C7130C"/>
<path d="M115.5 26.1538H107.625V34H115.5V26.1538Z" fill="#C7130C"/>
</svg>
