<svg width="30" height="41" viewBox="0 0 30 41" fill="none" xmlns="http://www.w3.org/2000/svg">
<path d="M5.43016 0.825779C3.9949 0.498021 2.52964 1.19737 2.08305 2.47945C-0.454909 11.3274 0.147956 19.3119 3.83556 25.8432C7.52368 32.374 14.2457 37.354 23.6155 40.3813C25.1501 40.8872 26.6133 39.9877 27.0492 38.7431C27.7365 36.6809 28.4264 34.614 29.1124 32.5542C29.5811 31.1116 28.5203 29.732 27.2642 29.3125C25.3222 28.6896 22.8371 27.1356 20.818 25.9037C20.4725 25.6958 20.0199 25.6712 19.6622 25.841L14.9679 28.021C11.4362 24.1116 10.045 21.6246 8.67886 16.7276L13.3383 14.5741C13.7154 14.4002 13.9751 14.0166 13.9915 13.6098C14.0888 11.3036 14.0117 8.23253 14.7959 6.34794C15.1331 4.7875 13.8766 3.56205 12.6872 3.18452L5.42919 0.82625L5.43016 0.825779ZM4.73567 3.00359L12.0295 5.37349C12.3939 5.49914 12.3939 5.49914 12.4666 5.87847C11.6416 8.18874 11.6751 10.8042 11.6316 12.7921L6.73225 15.0805C6.25533 15.3022 5.98618 15.8666 6.11719 16.3702C7.71946 22.4406 9.39364 25.4472 13.8013 30.2075C14.1485 30.581 14.7539 30.7026 15.2122 30.4908L20.1582 28.1801C22.0544 29.3469 24.3222 30.7691 26.5707 31.4902C26.724 31.5724 26.8126 31.8454 26.8252 31.8732L24.784 37.9945C24.6477 38.1458 24.7224 38.345 24.2518 38.1845C15.3483 35.2916 9.25127 30.6794 5.91948 24.7806C2.57888 18.8654 1.96096 11.5665 4.37827 3.13848C4.44971 2.91861 4.44971 2.91861 4.73549 3.0042L4.73567 3.00359Z" fill="#3787FF"/>
</svg>
