<svg width="46" height="46" viewBox="0 0 46 46" fill="none" xmlns="http://www.w3.org/2000/svg">
<path d="M33.1156 11.3186C32.9019 11.1772 32.6629 11.0802 32.4124 11.033C32.1618 10.9857 31.9046 10.9893 31.6554 11.0434C31.4062 11.0975 31.1699 11.2011 30.96 11.3483C30.7501 11.4955 30.5707 11.6833 30.4321 11.9012L19.5597 28.9781L14.2573 23.9824C14.0703 23.8061 13.851 23.6692 13.6119 23.5793C13.3729 23.4894 13.1188 23.4483 12.8643 23.4585C12.3501 23.479 11.865 23.7068 11.5156 24.0918C11.1663 24.4768 10.9814 24.9874 11.0015 25.5113C11.0216 26.0353 11.2452 26.5296 11.623 26.8856L18.585 33.4445C18.585 33.4445 18.7848 33.6198 18.8773 33.6811C19.0911 33.8226 19.3301 33.9197 19.5807 33.967C19.8313 34.0143 20.0886 34.0107 20.3379 33.9566C20.5872 33.9025 20.8235 33.7989 21.0335 33.6516C21.2434 33.5044 21.4228 33.3164 21.5615 33.0985L33.6874 14.053C33.8261 13.8352 33.9213 13.5917 33.9677 13.3364C34.014 13.0811 34.0105 12.819 33.9574 12.5651C33.9043 12.3112 33.8026 12.0704 33.6582 11.8565C33.5138 11.6426 33.3294 11.4598 33.1156 11.3186Z" fill="#FDFDFD"/>
<path d="M33.1156 11.3186C32.9019 11.1772 32.6629 11.0802 32.4124 11.033C32.1618 10.9857 31.9046 10.9893 31.6554 11.0434C31.4062 11.0975 31.1699 11.2011 30.96 11.3483C30.7501 11.4955 30.5707 11.6833 30.4321 11.9012L19.5597 28.9781L14.2573 23.9824C14.0703 23.8061 13.851 23.6692 13.6119 23.5793C13.3729 23.4894 13.1188 23.4483 12.8643 23.4585C12.3501 23.479 11.865 23.7068 11.5156 24.0918C11.1663 24.4768 10.9814 24.9874 11.0015 25.5113C11.0216 26.0353 11.2452 26.5296 11.623 26.8856L18.585 33.4445C18.585 33.4445 18.7848 33.6198 18.8773 33.6811C19.0911 33.8226 19.3301 33.9197 19.5807 33.967C19.8313 34.0143 20.0886 34.0107 20.3379 33.9566C20.5872 33.9025 20.8235 33.7989 21.0335 33.6516C21.2434 33.5044 21.4228 33.3164 21.5615 33.0985L33.6874 14.053C33.8261 13.8352 33.9213 13.5917 33.9677 13.3364C34.014 13.0811 34.0105 12.819 33.9574 12.5651C33.9043 12.3112 33.8026 12.0704 33.6582 11.8565C33.5138 11.6426 33.3294 11.4598 33.1156 11.3186Z" fill="url(#paint0_linear_1896_6586)" fill-opacity="0.6" style="mix-blend-mode:soft-light"/>
<circle cx="23" cy="23" r="21.5" stroke="white" stroke-width="3"/>
<defs>
<linearGradient id="paint0_linear_1896_6586" x1="34" y1="34" x2="11" y2="11" gradientUnits="userSpaceOnUse">
<stop/>
<stop offset="1" stop-color="white" stop-opacity="0"/>
</linearGradient>
</defs>
</svg>
