<svg width="72" height="48" viewBox="0 0 72 48" fill="none" xmlns="http://www.w3.org/2000/svg">
<path d="M70.4924 7.5312C70.0847 6.0778 69.2907 4.76196 68.1947 3.72357C67.0677 2.65324 65.6864 1.88761 64.1812 1.49895C58.548 0.0148671 35.979 0.0148674 35.979 0.0148674C26.5703 -0.0921282 17.1638 0.378465 7.8128 1.42399C6.30757 1.84137 4.92888 2.62411 3.79934 3.70258C2.68949 4.76992 1.8856 6.0861 1.46565 7.5282C0.456869 12.9601 -0.0332679 18.4754 0.0018513 24C-0.0341439 29.5196 0.45479 35.0331 1.46565 40.4718C1.8766 41.9079 2.67749 43.2181 3.79034 44.2764C4.90319 45.3347 6.28901 46.0993 7.8128 46.504C13.521 47.9851 35.979 47.9851 35.979 47.9851C45.3997 48.0922 54.8182 47.6217 64.1812 46.576C65.6864 46.1873 67.0677 45.4217 68.1947 44.3514C69.3045 43.293 70.0934 41.9768 70.4894 40.5437C71.5245 35.1139 72.0278 29.5963 71.9922 24.0689C72.07 18.5182 71.5674 12.9745 70.4924 7.5282V7.5312ZM28.804 34.2656V13.7374L47.5815 24.003L28.804 34.2656Z" fill="#FE0000"/>
</svg>
